# xmcd
#
# Track frame offsets: 
#        150
#        14125
#        44550
#        56550
#        78550
#        99400
#        121125
#        149700
#        165600
#        190350
#
# Disc length: 2739 seconds
#
# Revision: 0
# Processed by: cddbd v1.4PL0 Copyright (c) Steve Scherf et al.
# Submitted via: ExactAudioCopy v0.90b4
#
DISCID=900ab10a
DTITLE=Karen Carroll - Gospel
DYEAR=1992
DGENRE=Gospel
TTITLE0=Glory glory since i laid my burdons down
TTITLE1=I want to be a christian
TTITLE2=He´s got the whole world
TTITLE3=Peace be still
TTITLE4=Amazing grace
TTITLE5=Oh happy day
TTITLE6=Walk with me
TTITLE7=Jesus is on the mainline
TTITLE8=Doxology
TTITLE9=When the saints go marching in
EXTD=
EXTT0=
EXTT1=
EXTT2=
EXTT3=
EXTT4=
EXTT5=
EXTT6=
EXTT7=
EXTT8=
EXTT9=
PLAYORDER=
